<?xml version="1.0" encoding="utf-8"?>
<svg  version="1.1" xmlns="http://www.w3.org/2000/svg" xmlns:xlink="http://www.w3.org/1999/xlink" x="0px" y="0px"
	 style="enable-background:new 0 0 250 250;" xml:space="preserve" id="ionic-io-logo" width="94px" height="31px" viewBox="0 0 95 32">
  <g fill-rule="nonzero">
    <g id="icon">
      <path d="M15.9567568,8.75675676 C11.9567568,8.75675676 8.71351351,12 8.71351351,16 C8.71351351,20 11.9567568,23.2432432 15.9567568,23.2432432 C19.9567568,23.2432432 23.2,20 23.2,16 C23.1783784,12 19.9351351,8.75675676 15.9567568,8.75675676 Z" id="Shape"></path>
      <circle id="Oval" cx="26.3351351" cy="6.0972973" r="3.30810811"></circle>
      <path d="M30.4,9.40540541 L30.2702703,9.1027027 L30.0540541,9.36216216 C29.5135135,9.96756757 28.8216216,10.4432432 28.0648649,10.7243243 L27.8486486,10.8108108 L27.9351351,11.027027 C28.6054054,12.6054054 28.9297297,14.2918919 28.9297297,16 C28.9297297,23.1567568 23.1135135,28.9945946 15.9351351,28.9945946 C8.75675676,28.9945946 2.96216216,23.1567568 2.96216216,16 C2.96216216,8.84324324 8.77837838,3.00540541 15.9567568,3.00540541 C17.9027027,3.00540541 19.7621622,3.43783784 21.5135135,4.25945946 L21.7081081,4.34594595 L21.7945946,4.12972973 C22.1189189,3.37297297 22.6162162,2.72432432 23.2648649,2.20540541 L23.5243243,1.98918919 L23.2216216,1.83783784 C20.9513514,0.67027027 18.5081081,0.0648648649 15.9351351,0.0648648649 C7.17837838,0.0648648649 0.0432432432,7.2 0.0432432432,15.9567568 C0.0432432432,24.7135135 7.17837838,31.8486486 15.9351351,31.8486486 C24.6918919,31.8486486 31.827027,24.7135135 31.827027,15.9567568 C31.827027,13.7081081 31.3513514,11.5027027 30.4,9.40540541 Z" id="Shape"></path>
    </g>
  </g>
</svg>